<?xml version="1.0" encoding="utf-8"?>
<!-- Generator: Adobe Illustrator 28.3.0, SVG Export Plug-In . SVG Version: 6.00 Build 0)  -->
<svg version="1.1" id="Layer_1" xmlns="http://www.w3.org/2000/svg" xmlns:xlink="http://www.w3.org/1999/xlink" x="0px" y="0px"
	 viewBox="0 0 99.17 96.57" style="enable-background:new 0 0 99.17 96.57;" xml:space="preserve">
<g>
	<path d="M68.75,37.58c9.2,13.39,8.95,31.75-1.8,45.02c-13.09,16.17-36.82,18.66-52.99,5.57C-2.2,75.08-4.7,51.36,8.4,35.19
		c9.82-12.13,25.62-16.56,39.72-12.5c-11.05-2.28-22.96,1.53-30.55,10.9C6.75,46.96,8.81,66.58,22.18,77.41
		C35.55,88.23,55.17,86.17,66,72.8C74.36,62.48,75.03,48.43,68.75,37.58"/>
	<path d="M30.41,79.95c-9.2-13.39-8.95-31.75,1.79-45.02C45.3,18.76,69.03,16.26,85.2,29.36c16.17,13.09,18.67,36.82,5.57,52.98
		c-9.82,12.12-25.62,16.56-39.72,12.5C62.1,97.12,74,93.31,81.59,83.93c10.83-13.37,8.77-32.99-4.61-43.81
		c-13.37-10.83-32.99-8.76-43.82,4.6C24.81,55.05,24.13,69.1,30.41,79.95"/>
	<path d="M67.01,8.96c0-4.95,4.01-8.96,8.96-8.96s8.96,4.01,8.96,8.96c0,4.95-4.01,8.96-8.96,8.96S67.01,13.91,67.01,8.96"/>
</g>
</svg>
